<?xml version="1.0" encoding="UTF-8"?>
<svg id="Layer_2" data-name="Layer 2" xmlns="http://www.w3.org/2000/svg" viewBox="0 0 212.78 144.76">
  <g id="Layer_1-2" data-name="Layer 1">
    <g>
      <path d="M77.96,78.18c17.86.98,35.93-1.98,52.54-8.64,2.16-.87,2.89-3.18,1.32-5.01-.26-.3-.52-.6-.78-.9-1.06-1.23-3.16-1.08-4.24,0-1.22,1.22-1.06,3.01,0,4.24.26.3.52.6.78.9l1.32-5.01c-16.17,6.49-33.54,9.38-50.94,8.43-1.62-.09-3,1.44-3,3,0,1.7,1.38,2.91,3,3h0Z"/>
      <path d="M96.77,77.18c4.61,6.12,9.32,12.18,13.8,18.4,3.85,5.35,7.48,11.11,8.68,17.69,2.05,11.29-5.74,22.76-17,25.11-6.26,1.3-12.96-.28-18.16-4.21-1.29-.98-3.35-.21-4.1,1.08-.9,1.54-.22,3.12,1.08,4.1,11.15,8.42,28.01,6.88,37.24-3.65,4.5-5.13,7.23-11.79,7.26-18.65.04-7.53-3.22-14.6-7.26-20.79-5-7.65-10.85-14.8-16.34-22.1-.97-1.29-2.59-1.96-4.1-1.08-1.27.74-2.06,2.8-1.08,4.1h0Z"/>
      <g>
        <g>
          <g>
            <path d="M21.45,122.16c4.13,1.39,7.67,1.14,8.7,1.04,9.78-.91,15.99-8.7,20.24-14.03,1.75-2.19,8.73-11.28,12.06-26.01"/>
            <path d="M20.65,125.05c4.62,1.49,9.72,1.68,14.38.23s8.93-4.5,12.41-8.06c4.64-4.77,8.69-10.3,11.72-16.22,2.76-5.39,4.84-11.13,6.19-17.03.36-1.58-.49-3.25-2.1-3.69-1.51-.42-3.33.51-3.69,2.1-1.89,8.25-5.11,16.01-10,22.95-.29.42-.59.83-.9,1.23-.1.14-.2.33-.33.44.7-.59.24-.31.03-.04-1.11,1.39-2.22,2.78-3.4,4.12-2.83,3.21-5.7,5.86-9.54,7.68s-8.8,1.93-13.16.52c-1.54-.5-3.27.58-3.69,2.1-.45,1.62.55,3.19,2.1,3.69h0Z"/>
          </g>
          <g>
            <path d="M21.45,122.16c-.2-2-.04-3.47.8-5.3,6.17-13.42,16.35-24.96,28.9-32.74,3.3-2.05,8.57-3.73,11.3-.96"/>
            <path d="M24.45,122.16c-.17-1.93.05-3.11.9-4.87s1.74-3.45,2.7-5.11c1.9-3.29,4.04-6.45,6.44-9.39,4.93-6.04,10.76-11.34,17.33-15.54,1.67-1.07,3.08-1.84,4.95-2.3.89-.22,1.28-.3,2.27-.22-.39-.03.83.21.69.15.12.05.45.26.59.4,2.81,2.65,7.06-1.58,4.24-4.24-3.5-3.3-8.45-2.53-12.49-.77s-7.53,4.59-10.84,7.29c-6.94,5.65-12.91,12.56-17.56,20.22-2.62,4.31-5.69,9.16-5.23,14.39.14,1.61,1.28,3,3,3,1.51,0,3.14-1.38,3-3h0Z"/>
          </g>
        </g>
        <path d="M5.09,4.52c3.29,5.16,6.58,10.31,9.88,15.47.84,1.32,2.71,1.98,4.1,1.08,1.32-.85,1.98-2.69,1.08-4.1-3.29-5.16-6.58-10.31-9.88-15.47C9.43.17,7.56-.49,6.16.42c-1.32.85-1.98,2.69-1.08,4.1h0Z"/>
        <path d="M38.6,3.12l-.6,14.22c-.07,1.57,1.43,3.07,3,3,1.68-.08,2.93-1.32,3-3l.6-14.22c.07-1.57-1.43-3.07-3-3-1.68.08-2.93,1.32-3,3h0Z"/>
        <path d="M61.47,24.49c4.36-3.53,8.71-7.06,13.07-10.59,1.22-.99,1.11-3.22,0-4.24-1.3-1.19-2.94-1.06-4.24,0-4.36,3.53-8.71,7.06-13.07,10.59-1.22.99-1.11,3.22,0,4.24,1.3,1.19,2.94,1.06,4.24,0h0Z"/>
        <path d="M36.75,30.26c-9.48-1.88-18.47,3.25-24.05,10.7-5.95,7.95-7.82,18.19-9.8,27.69-2.19,10.54-4.04,21.4-2.05,32.12,1.62,8.73,6.43,16.71,13.65,21.93,3.47,2.51,7.5,4.09,11.74,4.59s8.81-.48,12.78-2.39c8.17-3.94,14.18-11.77,18.56-19.48,9.1-16.02,11.98-35.43,7.97-53.41-1.93-8.66-5.46-17.92-12.34-23.87-6.39-5.52-15.73-7.61-23.47-3.6-1.77.92-3.39,2.23-4.65,3.77-1.03,1.25-1.23,3.02,0,4.24,1.06,1.06,3.21,1.26,4.24,0,1.15-1.41,2.02-2.1,3.58-2.9.91-.47,3.06-1.04,4.03-1.13,3.33-.29,6.47.33,9.28,1.93,6.74,3.85,10.28,11.56,12.39,18.7,4.59,15.52,3.36,32.78-3.31,47.54-3.28,7.25-7.74,14.34-13.87,19.52-5.65,4.77-12.82,6.7-19.57,3.84-6.08-2.58-11.25-8.64-13.61-14.92-3.24-8.64-2.55-18.27-1.04-27.19.81-4.78,1.82-9.53,2.88-14.25.95-4.25,2.02-8.52,3.72-12.54,3.02-7.13,8.58-13.62,16.45-15.12,1.44-.27,3.41-.26,4.89.03,1.59.31,3.24-.45,3.69-2.1.41-1.48-.5-3.37-2.1-3.69h0Z"/>
      </g>
      <g>
        <g>
          <g>
            <path d="M158.82,128.89c4.13,1.39,7.67,1.14,8.7,1.04,9.78-.91,15.99-8.7,20.24-14.03,1.75-2.19,8.73-11.28,12.06-26.01"/>
            <path d="M158.02,131.78c4.62,1.49,9.72,1.68,14.38.23s8.93-4.5,12.41-8.06c4.64-4.77,8.69-10.3,11.72-16.22,2.76-5.39,4.84-11.13,6.19-17.03.36-1.58-.49-3.25-2.1-3.69-1.51-.42-3.33.51-3.69,2.1-1.89,8.25-5.11,16.01-10,22.95-.29.42-.59.83-.9,1.23-.1.14-.2.33-.33.44.7-.59.24-.31.03-.04-1.11,1.39-2.22,2.78-3.4,4.12-2.83,3.21-5.7,5.86-9.54,7.68s-8.8,1.93-13.16.52c-1.54-.5-3.27.58-3.69,2.1-.45,1.62.55,3.19,2.1,3.69h0Z"/>
          </g>
          <g>
            <path d="M158.82,128.89c-.2-2-.04-3.47.8-5.3,6.17-13.42,16.35-24.96,28.9-32.74,3.3-2.05,8.57-3.73,11.3-.96"/>
            <path d="M161.82,128.89c-.17-1.93.05-3.11.9-4.87s1.74-3.45,2.7-5.11c1.9-3.29,4.04-6.45,6.44-9.39,4.93-6.04,10.76-11.34,17.33-15.54,1.67-1.07,3.08-1.84,4.95-2.3.89-.22,1.28-.3,2.27-.22-.39-.03.83.21.69.15.12.05.45.26.59.4,2.81,2.65,7.06-1.58,4.24-4.24-3.5-3.3-8.45-2.53-12.49-.77s-7.53,4.59-10.84,7.29c-6.94,5.65-12.91,12.56-17.56,20.22-2.62,4.31-5.69,9.16-5.23,14.39.14,1.61,1.28,3,3,3,1.51,0,3.14-1.38,3-3h0Z"/>
          </g>
        </g>
        <path d="M142.46,11.25c3.29,5.16,6.58,10.31,9.88,15.47.84,1.32,2.71,1.98,4.1,1.08,1.32-.85,1.98-2.69,1.08-4.1-3.29-5.16-6.58-10.31-9.88-15.47-.84-1.32-2.71-1.98-4.1-1.08-1.32.85-1.98,2.69-1.08,4.1h0Z"/>
        <path d="M175.97,9.85l-.6,14.22c-.07,1.57,1.43,3.07,3,3,1.68-.08,2.93-1.32,3-3l.6-14.22c.07-1.57-1.43-3.07-3-3-1.68.08-2.93,1.32-3,3h0Z"/>
        <path d="M198.84,31.21c4.36-3.53,8.71-7.06,13.07-10.59,1.22-.99,1.11-3.22,0-4.24-1.3-1.19-2.94-1.06-4.24,0-4.36,3.53-8.71,7.06-13.07,10.59-1.22.99-1.11,3.22,0,4.24,1.3,1.19,2.94,1.06,4.24,0h0Z"/>
        <path d="M174.12,36.99c-9.48-1.88-18.47,3.25-24.05,10.7-5.95,7.95-7.82,18.19-9.8,27.69-2.19,10.54-4.04,21.4-2.05,32.12,1.62,8.73,6.43,16.71,13.65,21.93,3.47,2.51,7.5,4.09,11.74,4.59s8.81-.48,12.78-2.39c8.17-3.94,14.18-11.77,18.56-19.48,9.1-16.02,11.98-35.43,7.97-53.41-1.93-8.66-5.46-17.92-12.34-23.87-6.39-5.52-15.73-7.61-23.47-3.6-1.77.92-3.39,2.23-4.65,3.77-1.03,1.25-1.23,3.02,0,4.24,1.06,1.06,3.21,1.26,4.24,0,1.15-1.41,2.02-2.1,3.58-2.9.91-.47,3.06-1.04,4.03-1.13,3.33-.29,6.47.33,9.28,1.93,6.74,3.85,10.28,11.56,12.39,18.7,4.59,15.52,3.36,32.78-3.31,47.54-3.28,7.25-7.74,14.34-13.87,19.52-5.65,4.77-12.82,6.7-19.57,3.84-6.08-2.58-11.25-8.64-13.61-14.92-3.24-8.64-2.55-18.27-1.04-27.19.81-4.78,1.82-9.53,2.88-14.25.95-4.25,2.02-8.52,3.72-12.54,3.02-7.13,8.58-13.62,16.45-15.12,1.44-.27,3.41-.26,4.89.03,1.59.31,3.24-.45,3.69-2.1.41-1.48-.5-3.37-2.1-3.69h0Z"/>
      </g>
    </g>
  </g>
</svg>